<svg width="34" height="45" viewBox="0 0 34 45" fill="none" xmlns="http://www.w3.org/2000/svg">
<path d="M18.025 5.13299C17.7328 4.61091 17.1858 4.38111 16.6989 4.37512C16.213 4.36914 15.653 4.58673 15.3655 5.12424L15.1602 5.50821C12.035 11.352 9.53072 17.4438 7.67801 23.7097C7.47966 24.3806 7.85395 24.939 8.30048 25.2069C8.74547 25.4739 9.37495 25.5377 9.91412 25.1972L15.7035 21.5409C16.4213 21.0876 17.4387 21.0935 18.1906 21.577L24.0999 25.3772C24.6317 25.7192 25.2588 25.6829 25.713 25.4164C26.1754 25.1451 26.5278 24.5753 26.3106 23.908C24.2562 17.5959 21.5558 11.4425 18.2428 5.52217L18.025 5.13299Z" fill="#1D1D1D"/>
<path d="M8.41928 42H7.24928V34.32H2.95328V42H1.78928V33.402H8.41928V42ZM15.1495 35.922L11.7595 43.794C11.7235 43.874 11.6775 43.938 11.6215 43.986C11.5695 44.034 11.4875 44.058 11.3755 44.058H10.5835L11.6935 41.646L9.18551 35.922H10.1095C10.2015 35.922 10.2735 35.946 10.3255 35.994C10.3815 36.038 10.4195 36.088 10.4395 36.144L12.0655 39.972C12.1295 40.14 12.1835 40.316 12.2275 40.5C12.2835 40.312 12.3435 40.134 12.4075 39.966L13.9855 36.144C14.0095 36.08 14.0495 36.028 14.1055 35.988C14.1655 35.944 14.2315 35.922 14.3035 35.922H15.1495ZM20.8299 35.922V42H19.7559V39.156H16.8399V42H15.7659V35.922H16.8399V38.346H19.7559V35.922H20.8299ZM25.8906 36.222C25.9466 36.134 26.0206 36.062 26.1126 36.006C26.2046 35.95 26.3026 35.922 26.4066 35.922H27.2406L25.6626 38.238C25.5666 38.386 25.4666 38.508 25.3626 38.604C25.2586 38.696 25.1306 38.768 24.9786 38.82C25.1706 38.872 25.3326 38.954 25.4646 39.066C25.5966 39.174 25.7146 39.314 25.8186 39.486L27.4146 42H26.6706C26.4786 42 26.3306 41.968 26.2266 41.904C26.1226 41.84 26.0326 41.748 25.9566 41.628L24.7746 39.738C24.5866 39.426 24.3046 39.27 23.9286 39.27H23.2746V42.006H22.2006V35.922H23.2746V38.55H23.8506C24.1706 38.55 24.4206 38.414 24.6006 38.142L25.8906 36.222ZM33.1364 36.738H30.8024V42H29.7344V36.738H27.4004V35.922H33.1364V36.738Z" fill="#1D1D1D"/>
</svg>
