<svg
            width="33"
            height="45"
            viewBox="0 0 33 45"
            fill="none"
            xmlns="http://www.w3.org/2000/svg"
          >
            <path
              d="M16.5 4.6875C13.9112 4.6875 11.8125 6.78617 11.8125 9.375C11.8125 11.9638 13.9112 14.0625 16.5 14.0625C19.0888 14.0625 21.1875 11.9638 21.1875 9.375C21.1875 6.78617 19.0888 4.6875 16.5 4.6875Z"
              fill="#1D1D1D"
            />
            <path
              d="M11.5 16.5625C8.91116 16.5625 6.8125 18.6612 6.8125 21.25V22.7354C6.8125 23.6769 7.49485 24.4797 8.42409 24.6314C13.7726 25.5046 19.2274 25.5046 24.5759 24.6314C25.5051 24.4797 26.1875 23.6769 26.1875 22.7354V21.25C26.1875 18.6612 24.0888 16.5625 21.5 16.5625H21.0739C20.8433 16.5625 20.6141 16.599 20.3949 16.6706L19.313 17.0238C17.4852 17.6207 15.5148 17.6207 13.687 17.0238L12.6051 16.6706C12.3859 16.599 12.1567 16.5625 11.9261 16.5625H11.5Z"
              fill="#1D1D1D"
            />
            <path
              d="M7.91928 42H6.74928V34.32H2.45328V42H1.28928V33.402H7.91928V42ZM14.6495 35.922L11.2595 43.794C11.2235 43.874 11.1775 43.938 11.1215 43.986C11.0695 44.034 10.9875 44.058 10.8755 44.058H10.0835L11.1935 41.646L8.68551 35.922H9.60951C9.70151 35.922 9.77351 35.946 9.82551 35.994C9.88151 36.038 9.91951 36.088 9.93951 36.144L11.5655 39.972C11.6295 40.14 11.6835 40.316 11.7275 40.5C11.7835 40.312 11.8435 40.134 11.9075 39.966L13.4855 36.144C13.5095 36.08 13.5495 36.028 13.6055 35.988C13.6655 35.944 13.7315 35.922 13.8035 35.922H14.6495ZM20.3299 35.922V42H19.2559V39.156H16.3399V42H15.2659V35.922H16.3399V38.346H19.2559V35.922H20.3299ZM25.3906 36.222C25.4466 36.134 25.5206 36.062 25.6126 36.006C25.7046 35.95 25.8026 35.922 25.9066 35.922H26.7406L25.1626 38.238C25.0666 38.386 24.9666 38.508 24.8626 38.604C24.7586 38.696 24.6306 38.768 24.4786 38.82C24.6706 38.872 24.8326 38.954 24.9646 39.066C25.0966 39.174 25.2146 39.314 25.3186 39.486L26.9146 42H26.1706C25.9786 42 25.8306 41.968 25.7266 41.904C25.6226 41.84 25.5326 41.748 25.4566 41.628L24.2746 39.738C24.0866 39.426 23.8046 39.27 23.4286 39.27H22.7746V42.006H21.7006V35.922H22.7746V38.55H23.3506C23.6706 38.55 23.9206 38.414 24.1006 38.142L25.3906 36.222ZM32.6364 36.738H30.3024V42H29.2344V36.738H26.9004V35.922H32.6364V36.738Z"
              fill="#1D1D1D"
            />
          </svg>