<svg
        width="375"
        height="44"
        viewBox="0 0 375 44"
        fill="none"
        xmlns="http://www.w3.org/2000/svg"
      >
        <path
          opacity="0.4"
          d="M336.5 21.5C336.5 20.7917 336.5 20.2905 336.532 19.8987C336.564 19.5128 336.624 19.2772 336.718 19.092C336.91 18.7157 337.216 18.4097 337.592 18.218C337.777 18.1236 338.013 18.0639 338.399 18.0324C338.791 18.0004 339.292 18 340 18H354C354.708 18 355.209 18.0004 355.601 18.0324C355.987 18.0639 356.223 18.1236 356.408 18.218C356.784 18.4097 357.09 18.7157 357.282 19.092C357.376 19.2772 357.436 19.5128 357.468 19.8987C357.5 20.2905 357.5 20.7917 357.5 21.5V24C357.5 24.7083 357.5 25.2095 357.468 25.6013C357.436 25.9872 357.376 26.2228 357.282 26.408C357.09 26.7843 356.784 27.0903 356.408 27.282C356.223 27.3764 355.987 27.4361 355.601 27.4676C355.209 27.4996 354.708 27.5 354 27.5H340C339.292 27.5 338.791 27.4996 338.399 27.4676C338.013 27.4361 337.777 27.3764 337.592 27.282C337.216 27.0903 336.91 26.7843 336.718 26.408C336.624 26.2228 336.564 25.9872 336.532 25.6013C336.5 25.2095 336.5 24.7083 336.5 24V21.5Z"
          stroke="black"
        />
        <path
          opacity="0.4"
          fill-rule="evenodd"
          clip-rule="evenodd"
          d="M359 24.874C359.863 24.652 360.5 23.8689 360.5 22.937C360.5 22.0051 359.863 21.222 359 21V24.874Z"
          fill="black"
        />
        <rect x="338" y="19.5" width="18" height="6.5" rx="1" fill="black" />
        <path
          fill-rule="evenodd"
          clip-rule="evenodd"
          d="M323.33 19.608C325.546 19.6081 327.677 20.4596 329.283 21.9863C329.404 22.1042 329.598 22.1027 329.717 21.983L330.873 20.8163C330.933 20.7556 330.967 20.6734 330.966 20.5878C330.966 20.5022 330.931 20.4204 330.87 20.3603C326.655 16.3208 320.005 16.3208 315.79 20.3603C315.729 20.4203 315.694 20.5021 315.694 20.5877C315.693 20.6733 315.727 20.7556 315.787 20.8163L316.943 21.983C317.062 22.1029 317.256 22.1044 317.377 21.9863C318.983 20.4595 321.114 19.608 323.33 19.608ZM323.33 23.4037C324.548 23.4036 325.722 23.8561 326.624 24.6733C326.746 24.7893 326.939 24.7868 327.058 24.6677L328.212 23.501C328.273 23.4398 328.307 23.3568 328.306 23.2705C328.305 23.1843 328.27 23.102 328.208 23.042C325.459 20.4856 321.204 20.4856 318.455 23.042C318.393 23.102 318.358 23.1843 318.357 23.2706C318.356 23.3569 318.39 23.4399 318.451 23.501L319.605 24.6677C319.724 24.7868 319.917 24.7893 320.039 24.6733C320.941 23.8567 322.114 23.4042 323.33 23.4037ZM325.643 25.9575C325.645 26.044 325.611 26.1274 325.549 26.188L323.552 28.2037C323.493 28.2629 323.414 28.2963 323.33 28.2963C323.247 28.2963 323.167 28.2629 323.109 28.2037L321.111 26.188C321.049 26.1274 321.015 26.0439 321.017 25.9574C321.019 25.8709 321.056 25.789 321.121 25.731C322.396 24.6521 324.264 24.6521 325.54 25.731C325.604 25.7891 325.642 25.871 325.643 25.9575Z"
          fill="black"
        />
        <path
          fill-rule="evenodd"
          clip-rule="evenodd"
          d="M310.667 18.6667C310.667 18.1144 310.219 17.6667 309.667 17.6667H308.667C308.114 17.6667 307.667 18.1144 307.667 18.6667V27.3334C307.667 27.8856 308.114 28.3334 308.667 28.3334H309.667C310.219 28.3334 310.667 27.8856 310.667 27.3334V18.6667ZM304 20H305C305.552 20 306 20.4477 306 21V27.3334C306 27.8856 305.552 28.3334 305 28.3334H304C303.448 28.3334 303 27.8856 303 27.3334V21C303 20.4477 303.448 20 304 20ZM300.333 22.3334H299.333C298.781 22.3334 298.333 22.7811 298.333 23.3334V27.3334C298.333 27.8856 298.781 28.3334 299.333 28.3334H300.333C300.886 28.3334 301.333 27.8856 301.333 27.3334V23.3334C301.333 22.7811 300.886 22.3334 300.333 22.3334ZM296.667 25.3334C296.667 24.7811 296.219 24.3334 295.667 24.3334H294.667C294.114 24.3334 293.667 24.7811 293.667 25.3334V27.3334C293.667 27.8856 294.114 28.3334 294.667 28.3334H295.667C296.219 28.3334 296.667 27.8856 296.667 27.3334V25.3334Z"
          fill="black"
        />
        <path
          d="M34.7279 28.2714C34.6107 28.3983 34.4594 28.4618 34.2738 28.4618C34.0883 28.4618 33.9345 28.3983 33.8124 28.2714C33.6952 28.1444 33.6366 27.9808 33.6366 27.7806V19.204H33.6073L31.6298 20.5883C31.4833 20.6908 31.3344 20.7421 31.183 20.7421C31.0268 20.7421 30.8998 20.6932 30.8021 20.5956C30.7094 20.493 30.663 20.3612 30.663 20.2001C30.663 20.0829 30.6898 19.9803 30.7436 19.8925C30.7973 19.8046 30.8925 19.7118 31.0292 19.6141L33.2924 17.9955C33.4975 17.849 33.6586 17.7513 33.7758 17.7025C33.893 17.6537 34.0272 17.6293 34.1786 17.6293C34.4081 17.6293 34.5863 17.6952 34.7133 17.827C34.8451 17.9589 34.911 18.1395 34.911 18.369V27.7806C34.911 27.9808 34.85 28.1444 34.7279 28.2714ZM37.8996 28.33C37.7043 28.33 37.548 28.2811 37.4309 28.1835C37.3186 28.0858 37.2624 27.954 37.2624 27.788C37.2624 27.6512 37.2844 27.5389 37.3283 27.451C37.3771 27.3632 37.4797 27.2362 37.6359 27.0702L41.0197 23.5399C41.7277 22.7977 42.1965 22.2338 42.426 21.848C42.6604 21.4623 42.7775 21.0472 42.7775 20.6029C42.7775 20.0658 42.592 19.6215 42.2209 19.2699C41.8498 18.9135 41.3811 18.7352 40.8146 18.7352C40.2434 18.7352 39.7624 18.8817 39.3718 19.1747C38.9812 19.4677 38.6955 19.8973 38.5148 20.4637C38.4172 20.7714 38.2194 20.9252 37.9216 20.9252C37.7312 20.9252 37.5822 20.8715 37.4748 20.764C37.3674 20.6566 37.3137 20.515 37.3137 20.3392C37.3137 20.2513 37.321 20.1635 37.3356 20.0756C37.3747 19.7924 37.4772 19.5092 37.6433 19.226C37.8142 18.9427 38.0388 18.6766 38.3171 18.4276C38.5954 18.1786 38.9519 17.976 39.3864 17.8197C39.8259 17.6635 40.302 17.5853 40.8146 17.5853C41.7668 17.5853 42.5505 17.8612 43.1657 18.413C43.7858 18.9647 44.0959 19.6678 44.0959 20.5223C44.0959 21.0985 43.9323 21.6576 43.6052 22.1996C43.278 22.7416 42.6628 23.4764 41.7595 24.4042L39.1081 27.1288V27.1581H43.7224C43.9079 27.1581 44.0568 27.2118 44.1691 27.3192C44.2863 27.4266 44.3449 27.5682 44.3449 27.744C44.3449 27.9198 44.2863 28.0614 44.1691 28.1688C44.0568 28.2762 43.9079 28.33 43.7224 28.33H37.8996ZM47.1357 20.9398C46.9746 21.101 46.7769 21.1815 46.5425 21.1815C46.3081 21.1815 46.1104 21.101 45.9492 20.9398C45.7881 20.7787 45.7075 20.5809 45.7075 20.3466C45.7075 20.1122 45.7881 19.9144 45.9492 19.7533C46.1104 19.5922 46.3081 19.5116 46.5425 19.5116C46.7769 19.5116 46.9746 19.5922 47.1357 19.7533C47.2969 19.9144 47.3774 20.1122 47.3774 20.3466C47.3774 20.5809 47.2969 20.7787 47.1357 20.9398ZM47.1357 26.3304C46.9746 26.4916 46.7769 26.5721 46.5425 26.5721C46.3081 26.5721 46.1104 26.4916 45.9492 26.3304C45.7881 26.1693 45.7075 25.9716 45.7075 25.7372C45.7075 25.5028 45.7881 25.3051 45.9492 25.1439C46.1104 24.9828 46.3081 24.9022 46.5425 24.9022C46.7769 24.9022 46.9746 24.9828 47.1357 25.1439C47.2969 25.3051 47.3774 25.5028 47.3774 25.7372C47.3774 25.9716 47.2969 26.1693 47.1357 26.3304ZM55.1194 28.2714C55.0022 28.3983 54.8509 28.4618 54.6653 28.4618C54.4798 28.4618 54.326 28.3983 54.2039 28.2714C54.0867 28.1444 54.0281 27.9808 54.0281 27.7806V26.1327H49.4505C49.2161 26.1327 49.0306 26.0668 48.8938 25.9349C48.7571 25.7982 48.6888 25.6151 48.6888 25.3856C48.6888 25.2196 48.7107 25.0658 48.7547 24.9242C48.7986 24.7826 48.8816 24.6044 49.0037 24.3895C49.6336 23.2665 50.8689 21.3842 52.7098 18.7426C53.0076 18.3129 53.2615 18.0199 53.4715 17.8636C53.6863 17.7074 53.9378 17.6293 54.2259 17.6293C54.5774 17.6293 54.8436 17.7172 55.0242 17.8929C55.2098 18.0687 55.3025 18.3275 55.3025 18.6693V24.9755H56.2693C56.45 24.9755 56.5965 25.0292 56.7088 25.1366C56.826 25.244 56.8846 25.3832 56.8846 25.5541C56.8846 25.725 56.826 25.8641 56.7088 25.9716C56.5965 26.079 56.45 26.1327 56.2693 26.1327H55.3025V27.7806C55.3025 27.9808 55.2415 28.1444 55.1194 28.2714ZM54.0281 24.9755V18.9037H54.0062C52.0042 21.765 50.6712 23.7792 50.0071 24.9462V24.9755H54.0281ZM61.4039 28.5057C60.2857 28.5057 59.3678 28.2225 58.65 27.6561C57.9322 27.0848 57.5733 26.3573 57.5733 25.4735C57.5733 24.8143 57.7809 24.2357 58.1959 23.7377C58.6109 23.2396 59.1603 22.9125 59.8438 22.7562V22.7269C59.2579 22.5463 58.7965 22.246 58.4596 21.826C58.1227 21.4061 57.9542 20.9178 57.9542 20.3612C57.9542 19.5604 58.2813 18.8988 58.9356 18.3763C59.5899 17.849 60.4127 17.5853 61.4039 17.5853C62.4049 17.5853 63.2276 17.849 63.8722 18.3763C64.5216 18.8988 64.8463 19.5629 64.8463 20.3685C64.8463 20.9154 64.6778 21.3988 64.3409 21.8187C64.0089 22.2386 63.5499 22.5414 62.964 22.7269V22.7562C63.6476 22.9174 64.1969 23.2469 64.6119 23.745C65.0318 24.243 65.2418 24.8192 65.2418 25.4735C65.2418 26.3573 64.8829 27.0848 64.1651 27.6561C63.4474 28.2225 62.527 28.5057 61.4039 28.5057ZM61.4039 22.2362C62.0289 22.2362 62.5416 22.0726 62.942 21.7455C63.3424 21.4183 63.5426 20.9984 63.5426 20.4857C63.5426 19.9681 63.3424 19.5458 62.942 19.2186C62.5465 18.8866 62.0338 18.7206 61.4039 18.7206C60.774 18.7206 60.2589 18.8866 59.8585 19.2186C59.463 19.5458 59.2652 19.9681 59.2652 20.4857C59.2652 20.9984 59.463 21.4183 59.8585 21.7455C60.2589 22.0726 60.774 22.2362 61.4039 22.2362ZM61.4039 27.3558C62.1314 27.3558 62.7271 27.1703 63.191 26.7992C63.6598 26.4281 63.8941 25.9545 63.8941 25.3783C63.8941 24.7972 63.6598 24.3212 63.191 23.9501C62.7271 23.579 62.1314 23.3934 61.4039 23.3934C60.6764 23.3934 60.0782 23.5814 59.6095 23.9574C59.1456 24.3285 58.9137 24.8021 58.9137 25.3783C58.9137 25.9545 59.148 26.4281 59.6168 26.7992C60.0855 27.1703 60.6813 27.3558 61.4039 27.3558Z"
          fill="black"
        />
      </svg>