<svg
            width="34"
            height="45"
            viewBox="0 0 34 45"
            fill="none"
            xmlns="http://www.w3.org/2000/svg"
          >
            <path
              fill-rule="evenodd"
              clip-rule="evenodd"
              d="M6.375 15C6.375 9.13197 11.132 4.375 17 4.375C22.868 4.375 27.625 9.13197 27.625 15C27.625 20.868 22.868 25.625 17 25.625C11.132 25.625 6.375 20.868 6.375 15ZM17.9375 8.75C17.9375 8.23223 17.5178 7.8125 17 7.8125C16.4822 7.8125 16.0625 8.23223 16.0625 8.75V15C16.0625 15.3232 16.229 15.6237 16.5031 15.795L20.2531 18.1387C20.6922 18.4132 21.2706 18.2797 21.545 17.8406C21.8194 17.4016 21.6859 16.8232 21.2469 16.5488L17.9375 14.4804V8.75Z"
              fill="#EF7958"
            />
            <path
              d="M8.41928 42H7.24928V34.32H2.95328V42H1.78928V33.402H8.41928V42ZM15.1495 35.922L11.7595 43.794C11.7235 43.874 11.6775 43.938 11.6215 43.986C11.5695 44.034 11.4875 44.058 11.3755 44.058H10.5835L11.6935 41.646L9.18551 35.922H10.1095C10.2015 35.922 10.2735 35.946 10.3255 35.994C10.3815 36.038 10.4195 36.088 10.4395 36.144L12.0655 39.972C12.1295 40.14 12.1835 40.316 12.2275 40.5C12.2835 40.312 12.3435 40.134 12.4075 39.966L13.9855 36.144C14.0095 36.08 14.0495 36.028 14.1055 35.988C14.1655 35.944 14.2315 35.922 14.3035 35.922H15.1495ZM20.8299 35.922V42H19.7559V39.156H16.8399V42H15.7659V35.922H16.8399V38.346H19.7559V35.922H20.8299ZM25.8906 36.222C25.9466 36.134 26.0206 36.062 26.1126 36.006C26.2046 35.95 26.3026 35.922 26.4066 35.922H27.2406L25.6626 38.238C25.5666 38.386 25.4666 38.508 25.3626 38.604C25.2586 38.696 25.1306 38.768 24.9786 38.82C25.1706 38.872 25.3326 38.954 25.4646 39.066C25.5966 39.174 25.7146 39.314 25.8186 39.486L27.4146 42H26.6706C26.4786 42 26.3306 41.968 26.2266 41.904C26.1226 41.84 26.0326 41.748 25.9566 41.628L24.7746 39.738C24.5866 39.426 24.3046 39.27 23.9286 39.27H23.2746V42.006H22.2006V35.922H23.2746V38.55H23.8506C24.1706 38.55 24.4206 38.414 24.6006 38.142L25.8906 36.222ZM33.1364 36.738H30.8024V42H29.7344V36.738H27.4004V35.922H33.1364V36.738Z"
              fill="#1D1D1D"
            />
          </svg>